G04 #@! TF.GenerationSoftware,KiCad,Pcbnew,(5.1.0)-1*
G04 #@! TF.CreationDate,2019-11-21T20:20:07-05:00*
G04 #@! TF.ProjectId,gopro_lights,676f7072-6f5f-46c6-9967-6874732e6b69,1*
G04 #@! TF.SameCoordinates,Original*
G04 #@! TF.FileFunction,Legend,Top*
G04 #@! TF.FilePolarity,Positive*
%FSLAX46Y46*%
G04 Gerber Fmt 4.6, Leading zero omitted, Abs format (unit mm)*
G04 Created by KiCad (PCBNEW (5.1.0)-1) date 2019-11-21 20:20:07*
%MOMM*%
%LPD*%
G04 APERTURE LIST*
%ADD10C,0.300000*%
%ADD11C,0.120000*%
%ADD12C,0.150000*%
G04 APERTURE END LIST*
D10*
X105635714Y-61235714D02*
X105564285Y-61307142D01*
X105350000Y-61378571D01*
X105207142Y-61378571D01*
X104992857Y-61307142D01*
X104850000Y-61164285D01*
X104778571Y-61021428D01*
X104707142Y-60735714D01*
X104707142Y-60521428D01*
X104778571Y-60235714D01*
X104850000Y-60092857D01*
X104992857Y-59950000D01*
X105207142Y-59878571D01*
X105350000Y-59878571D01*
X105564285Y-59950000D01*
X105635714Y-60021428D01*
X106207142Y-60950000D02*
X106921428Y-60950000D01*
X106064285Y-61378571D02*
X106564285Y-59878571D01*
X107064285Y-61378571D01*
X107564285Y-61378571D02*
X107564285Y-59878571D01*
X108064285Y-60950000D01*
X108564285Y-59878571D01*
X108564285Y-61378571D01*
X109278571Y-60592857D02*
X109778571Y-60592857D01*
X109992857Y-61378571D02*
X109278571Y-61378571D01*
X109278571Y-59878571D01*
X109992857Y-59878571D01*
X111492857Y-61378571D02*
X110992857Y-60664285D01*
X110635714Y-61378571D02*
X110635714Y-59878571D01*
X111207142Y-59878571D01*
X111350000Y-59950000D01*
X111421428Y-60021428D01*
X111492857Y-60164285D01*
X111492857Y-60378571D01*
X111421428Y-60521428D01*
X111350000Y-60592857D01*
X111207142Y-60664285D01*
X110635714Y-60664285D01*
X112064285Y-60950000D02*
X112778571Y-60950000D01*
X111921428Y-61378571D02*
X112421428Y-59878571D01*
X112921428Y-61378571D01*
X115278571Y-61378571D02*
X114564285Y-61378571D01*
X114564285Y-59878571D01*
X115778571Y-61378571D02*
X115778571Y-59878571D01*
X117278571Y-59950000D02*
X117135714Y-59878571D01*
X116921428Y-59878571D01*
X116707142Y-59950000D01*
X116564285Y-60092857D01*
X116492857Y-60235714D01*
X116421428Y-60521428D01*
X116421428Y-60735714D01*
X116492857Y-61021428D01*
X116564285Y-61164285D01*
X116707142Y-61307142D01*
X116921428Y-61378571D01*
X117064285Y-61378571D01*
X117278571Y-61307142D01*
X117350000Y-61235714D01*
X117350000Y-60735714D01*
X117064285Y-60735714D01*
X117992857Y-61378571D02*
X117992857Y-59878571D01*
X117992857Y-60592857D02*
X118850000Y-60592857D01*
X118850000Y-61378571D02*
X118850000Y-59878571D01*
X119350000Y-59878571D02*
X120207142Y-59878571D01*
X119778571Y-61378571D02*
X119778571Y-59878571D01*
X120635714Y-61307142D02*
X120850000Y-61378571D01*
X121207142Y-61378571D01*
X121350000Y-61307142D01*
X121421428Y-61235714D01*
X121492857Y-61092857D01*
X121492857Y-60950000D01*
X121421428Y-60807142D01*
X121350000Y-60735714D01*
X121207142Y-60664285D01*
X120921428Y-60592857D01*
X120778571Y-60521428D01*
X120707142Y-60450000D01*
X120635714Y-60307142D01*
X120635714Y-60164285D01*
X120707142Y-60021428D01*
X120778571Y-59950000D01*
X120921428Y-59878571D01*
X121278571Y-59878571D01*
X121492857Y-59950000D01*
X95478571Y-61578571D02*
X95478571Y-60078571D01*
X95978571Y-61150000D01*
X96478571Y-60078571D01*
X96478571Y-61578571D01*
X97192857Y-61578571D02*
X97192857Y-60078571D01*
X97692857Y-60078571D02*
X98550000Y-60078571D01*
X98121428Y-61578571D02*
X98121428Y-60078571D01*
X101050000Y-61578571D02*
X100550000Y-60864285D01*
X100192857Y-61578571D02*
X100192857Y-60078571D01*
X100764285Y-60078571D01*
X100907142Y-60150000D01*
X100978571Y-60221428D01*
X101050000Y-60364285D01*
X101050000Y-60578571D01*
X100978571Y-60721428D01*
X100907142Y-60792857D01*
X100764285Y-60864285D01*
X100192857Y-60864285D01*
X101478571Y-60078571D02*
X102335714Y-60078571D01*
X101907142Y-61578571D02*
X101907142Y-60078571D01*
D11*
X84741422Y-95290000D02*
X85258578Y-95290000D01*
X84741422Y-96710000D02*
X85258578Y-96710000D01*
X107402335Y-64921392D02*
G75*
G03X104170000Y-64764484I-1672335J-1078608D01*
G01*
X107402335Y-67078608D02*
G75*
G02X104170000Y-67235516I-1672335J1078608D01*
G01*
X106771130Y-64920163D02*
G75*
G03X104689039Y-64920000I-1041130J-1079837D01*
G01*
X106771130Y-67079837D02*
G75*
G02X104689039Y-67080000I-1041130J1079837D01*
G01*
X104170000Y-64764000D02*
X104170000Y-64920000D01*
X104170000Y-67080000D02*
X104170000Y-67236000D01*
X85937526Y-82609545D02*
X86085891Y-82657751D01*
X83734879Y-81893861D02*
X83883244Y-81942068D01*
X86741165Y-80135673D02*
G75*
G02X86097918Y-82115909I-1348713J-656485D01*
G01*
X84687192Y-79468297D02*
G75*
G03X84043636Y-81448433I705260J-1323861D01*
G01*
X86935050Y-79534982D02*
G75*
G02X86085431Y-82657602I-1542598J-1257176D01*
G01*
X84883414Y-78868365D02*
G75*
G03X83735340Y-81894011I509038J-1923793D01*
G01*
X91985611Y-105143152D02*
G75*
G03X94508397Y-107170011I1986937J-110361D01*
G01*
X93253590Y-103397927D02*
G75*
G02X95960833Y-105170904I718958J-1855586D01*
G01*
X92495544Y-105515159D02*
G75*
G03X94179895Y-106739113I1477004J261646D01*
G01*
X93764968Y-103767945D02*
G75*
G02X95449512Y-104991636I207580J-1485568D01*
G01*
X94508112Y-107170403D02*
X94599807Y-107044196D01*
X95869423Y-105296719D02*
X95961118Y-105170513D01*
X120599807Y-101955804D02*
X120508112Y-101829597D01*
X121961118Y-103829487D02*
X121869423Y-103703281D01*
X118495544Y-103484841D02*
G75*
G02X120179895Y-102260887I1477004J-261646D01*
G01*
X119764968Y-105232055D02*
G75*
G03X121449512Y-104008364I207580J1485568D01*
G01*
X117985611Y-103856848D02*
G75*
G02X120508397Y-101829989I1986937J110361D01*
G01*
X119253590Y-105602073D02*
G75*
G03X121960833Y-103829096I718958J1855586D01*
G01*
X126935050Y-81465018D02*
G75*
G03X126085431Y-78342398I-1542598J1257176D01*
G01*
X124883414Y-82131635D02*
G75*
G02X123735340Y-79105989I509038J1923793D01*
G01*
X126741165Y-80864327D02*
G75*
G03X126097918Y-78884091I-1348713J656485D01*
G01*
X124687192Y-81531703D02*
G75*
G02X124043636Y-79551567I705260J1323861D01*
G01*
X126085891Y-78342249D02*
X125937526Y-78390455D01*
X123883244Y-79057932D02*
X123734879Y-79106139D01*
X129710000Y-106678922D02*
X129710000Y-107196078D01*
X128290000Y-106678922D02*
X128290000Y-107196078D01*
X89600000Y-107410000D02*
X79440000Y-107410000D01*
X89600000Y-108680000D02*
X89600000Y-101060000D01*
X89600000Y-101060000D02*
X79440000Y-101060000D01*
X79440000Y-101060000D02*
X79440000Y-108680000D01*
X79440000Y-108680000D02*
X89600000Y-108680000D01*
D12*
X84833333Y-94707142D02*
X84785714Y-94754761D01*
X84642857Y-94802380D01*
X84547619Y-94802380D01*
X84404761Y-94754761D01*
X84309523Y-94659523D01*
X84261904Y-94564285D01*
X84214285Y-94373809D01*
X84214285Y-94230952D01*
X84261904Y-94040476D01*
X84309523Y-93945238D01*
X84404761Y-93850000D01*
X84547619Y-93802380D01*
X84642857Y-93802380D01*
X84785714Y-93850000D01*
X84833333Y-93897619D01*
X85785714Y-94802380D02*
X85214285Y-94802380D01*
X85500000Y-94802380D02*
X85500000Y-93802380D01*
X85404761Y-93945238D01*
X85309523Y-94040476D01*
X85214285Y-94088095D01*
X104991904Y-63492380D02*
X104991904Y-62492380D01*
X105230000Y-62492380D01*
X105372857Y-62540000D01*
X105468095Y-62635238D01*
X105515714Y-62730476D01*
X105563333Y-62920952D01*
X105563333Y-63063809D01*
X105515714Y-63254285D01*
X105468095Y-63349523D01*
X105372857Y-63444761D01*
X105230000Y-63492380D01*
X104991904Y-63492380D01*
X106515714Y-63492380D02*
X105944285Y-63492380D01*
X106230000Y-63492380D02*
X106230000Y-62492380D01*
X106134761Y-62635238D01*
X106039523Y-62730476D01*
X105944285Y-62778095D01*
X82779479Y-80719231D02*
X81828423Y-80410214D01*
X81901998Y-80183772D01*
X81991432Y-80062622D01*
X82111439Y-80001475D01*
X82216731Y-79985617D01*
X82412600Y-79999189D01*
X82548465Y-80043334D01*
X82714903Y-80147483D01*
X82790765Y-80222202D01*
X82851912Y-80342209D01*
X82853055Y-80492789D01*
X82779479Y-80719231D01*
X82213302Y-79533876D02*
X82182728Y-79473873D01*
X82166870Y-79368581D01*
X82240446Y-79142139D01*
X82315164Y-79066277D01*
X82375168Y-79035704D01*
X82480460Y-79019846D01*
X82571036Y-79049276D01*
X82692186Y-79138709D01*
X83059066Y-79858751D01*
X83250362Y-79270002D01*
X91369669Y-107580345D02*
X91957454Y-106771328D01*
X92150077Y-106911277D01*
X92237661Y-107033771D01*
X92258731Y-107166799D01*
X92241276Y-107271838D01*
X92167842Y-107453927D01*
X92083872Y-107569501D01*
X91933389Y-107695609D01*
X91838885Y-107744669D01*
X91705856Y-107765738D01*
X91562292Y-107720294D01*
X91369669Y-107580345D01*
X92689422Y-107303134D02*
X93190242Y-107667001D01*
X92696652Y-107779269D01*
X92812225Y-107863239D01*
X92861285Y-107957743D01*
X92871820Y-108024257D01*
X92854365Y-108129296D01*
X92714416Y-108321919D01*
X92619912Y-108370979D01*
X92553397Y-108381513D01*
X92448358Y-108364059D01*
X92217211Y-108196120D01*
X92168151Y-108101616D01*
X92157616Y-108035101D01*
X121381164Y-106941003D02*
X120793379Y-106131986D01*
X120986002Y-105992037D01*
X121129565Y-105946592D01*
X121262594Y-105967662D01*
X121357098Y-106016721D01*
X121507582Y-106142830D01*
X121591551Y-106258404D01*
X121664986Y-106440492D01*
X121682441Y-106545531D01*
X121661371Y-106678560D01*
X121573787Y-106801054D01*
X121381164Y-106941003D01*
X122145045Y-105561965D02*
X122536902Y-106101310D01*
X121728504Y-105393717D02*
X121955728Y-106111535D01*
X122456548Y-105747668D01*
X127549255Y-78730974D02*
X128500311Y-78421957D01*
X128573887Y-78648399D01*
X128572744Y-78798979D01*
X128511597Y-78918986D01*
X128435735Y-78993705D01*
X128269297Y-79097853D01*
X128133431Y-79141999D01*
X127937563Y-79155571D01*
X127832271Y-79139712D01*
X127712264Y-79078566D01*
X127622830Y-78957416D01*
X127549255Y-78730974D01*
X128956479Y-79825897D02*
X128809328Y-79373013D01*
X128341729Y-79474876D01*
X128401733Y-79505449D01*
X128476451Y-79581311D01*
X128550027Y-79807753D01*
X128534168Y-79913045D01*
X128503595Y-79973048D01*
X128427733Y-80047767D01*
X128201291Y-80121342D01*
X128095999Y-80105484D01*
X128035996Y-80074911D01*
X127961277Y-79999049D01*
X127887702Y-79772607D01*
X127903560Y-79667315D01*
X127934133Y-79607312D01*
X131102380Y-107104166D02*
X130626190Y-107437500D01*
X131102380Y-107675595D02*
X130102380Y-107675595D01*
X130102380Y-107294642D01*
X130150000Y-107199404D01*
X130197619Y-107151785D01*
X130292857Y-107104166D01*
X130435714Y-107104166D01*
X130530952Y-107151785D01*
X130578571Y-107199404D01*
X130626190Y-107294642D01*
X130626190Y-107675595D01*
X131102380Y-106151785D02*
X131102380Y-106723214D01*
X131102380Y-106437500D02*
X130102380Y-106437500D01*
X130245238Y-106532738D01*
X130340476Y-106627976D01*
X130388095Y-106723214D01*
X84186666Y-99242380D02*
X84186666Y-99956666D01*
X84139047Y-100099523D01*
X84043809Y-100194761D01*
X83900952Y-100242380D01*
X83805714Y-100242380D01*
X85186666Y-100242380D02*
X84615238Y-100242380D01*
X84900952Y-100242380D02*
X84900952Y-99242380D01*
X84805714Y-99385238D01*
X84710476Y-99480476D01*
X84615238Y-99528095D01*
M02*
