G04 #@! TF.GenerationSoftware,KiCad,Pcbnew,(5.1.0)-1*
G04 #@! TF.CreationDate,2019-11-21T20:20:06-05:00*
G04 #@! TF.ProjectId,gopro_lights,676f7072-6f5f-46c6-9967-6874732e6b69,1*
G04 #@! TF.SameCoordinates,Original*
G04 #@! TF.FileFunction,Copper,L2,Bot*
G04 #@! TF.FilePolarity,Positive*
%FSLAX46Y46*%
G04 Gerber Fmt 4.6, Leading zero omitted, Abs format (unit mm)*
G04 Created by KiCad (PCBNEW (5.1.0)-1) date 2019-11-21 20:20:06*
%MOMM*%
%LPD*%
G04 APERTURE LIST*
%ADD10R,1.800000X1.800000*%
%ADD11C,1.800000*%
%ADD12C,0.100000*%
%ADD13R,3.000000X3.000000*%
%ADD14C,3.000000*%
%ADD15C,0.800000*%
%ADD16C,0.254000*%
G04 APERTURE END LIST*
D10*
X104460000Y-66000000D03*
D11*
X107000000Y-66000000D03*
X85784903Y-79584316D03*
X85000000Y-82000000D03*
D12*
G36*
X85577836Y-83134066D02*
G01*
X83865934Y-82577836D01*
X84422164Y-80865934D01*
X86134066Y-81422164D01*
X85577836Y-83134066D01*
X85577836Y-83134066D01*
G37*
D11*
X95000000Y-106000000D03*
D12*
G36*
X96257122Y-105800891D02*
G01*
X95199109Y-107257122D01*
X93742878Y-106199109D01*
X94800891Y-104742878D01*
X96257122Y-105800891D01*
X96257122Y-105800891D01*
G37*
D11*
X92945097Y-104507025D03*
X118945097Y-104492975D03*
X121000000Y-103000000D03*
D12*
G36*
X121199109Y-101742878D02*
G01*
X122257122Y-103199109D01*
X120800891Y-104257122D01*
X119742878Y-102800891D01*
X121199109Y-101742878D01*
X121199109Y-101742878D01*
G37*
D11*
X125000000Y-79000000D03*
D12*
G36*
X123865934Y-78422164D02*
G01*
X125577836Y-77865934D01*
X126134066Y-79577836D01*
X124422164Y-80134066D01*
X123865934Y-78422164D01*
X123865934Y-78422164D01*
G37*
D11*
X125784903Y-81415684D03*
D13*
X81980000Y-104870000D03*
D14*
X87060000Y-104870000D03*
D15*
X106480000Y-110980000D03*
D16*
G36*
X125983594Y-58739638D02*
G01*
X126458304Y-58860068D01*
X126579566Y-58971699D01*
X131401496Y-64471969D01*
X131690000Y-64952809D01*
X131690001Y-110977572D01*
X131690000Y-110977582D01*
X131690000Y-111067723D01*
X131670898Y-111262540D01*
X131642636Y-111356149D01*
X131619053Y-111384543D01*
X131486203Y-111492266D01*
X131334892Y-111571996D01*
X131170927Y-111620674D01*
X130994386Y-111637001D01*
X81009509Y-111338957D01*
X80834015Y-111320699D01*
X80671358Y-111270545D01*
X80521546Y-111189768D01*
X80390259Y-111081430D01*
X80282514Y-110949670D01*
X80202403Y-110799492D01*
X80152977Y-110636613D01*
X80135501Y-110461043D01*
X80130161Y-106903025D01*
X80235820Y-106959502D01*
X80355518Y-106995812D01*
X80480000Y-107008072D01*
X83480000Y-107008072D01*
X83604482Y-106995812D01*
X83724180Y-106959502D01*
X83834494Y-106900537D01*
X83931185Y-106821185D01*
X84010537Y-106724494D01*
X84069502Y-106614180D01*
X84105812Y-106494482D01*
X84118072Y-106370000D01*
X84118072Y-104659721D01*
X84925000Y-104659721D01*
X84925000Y-105080279D01*
X85007047Y-105492756D01*
X85167988Y-105881302D01*
X85401637Y-106230983D01*
X85699017Y-106528363D01*
X86048698Y-106762012D01*
X86437244Y-106922953D01*
X86849721Y-107005000D01*
X87270279Y-107005000D01*
X87682756Y-106922953D01*
X88071302Y-106762012D01*
X88420983Y-106528363D01*
X88718363Y-106230983D01*
X88952012Y-105881302D01*
X89112953Y-105492756D01*
X89195000Y-105080279D01*
X89195000Y-104659721D01*
X89134555Y-104355841D01*
X91410097Y-104355841D01*
X91410097Y-104658209D01*
X91469086Y-104954768D01*
X91584798Y-105234120D01*
X91752785Y-105485530D01*
X91966592Y-105699337D01*
X92218002Y-105867324D01*
X92497354Y-105983036D01*
X92793913Y-106042025D01*
X93096281Y-106042025D01*
X93127401Y-106035835D01*
X93122436Y-106050154D01*
X93105298Y-106174059D01*
X93112662Y-106298926D01*
X93144244Y-106419957D01*
X93198832Y-106532501D01*
X93274328Y-106632233D01*
X93367829Y-106715320D01*
X94824060Y-107773333D01*
X94931974Y-107836583D01*
X95050154Y-107877564D01*
X95174059Y-107894702D01*
X95298926Y-107887338D01*
X95419957Y-107855756D01*
X95532501Y-107801168D01*
X95632233Y-107725672D01*
X95715320Y-107632171D01*
X96773333Y-106175940D01*
X96836583Y-106068026D01*
X96877564Y-105949846D01*
X96894702Y-105825941D01*
X96887338Y-105701074D01*
X96855756Y-105580043D01*
X96801168Y-105467499D01*
X96725672Y-105367767D01*
X96632171Y-105284680D01*
X95334395Y-104341791D01*
X117410097Y-104341791D01*
X117410097Y-104644159D01*
X117469086Y-104940718D01*
X117584798Y-105220070D01*
X117752785Y-105471480D01*
X117966592Y-105685287D01*
X118218002Y-105853274D01*
X118497354Y-105968986D01*
X118793913Y-106027975D01*
X119096281Y-106027975D01*
X119392840Y-105968986D01*
X119672192Y-105853274D01*
X119923602Y-105685287D01*
X120137409Y-105471480D01*
X120305396Y-105220070D01*
X120421108Y-104940718D01*
X120451305Y-104788909D01*
X120467499Y-104801168D01*
X120580043Y-104855756D01*
X120701074Y-104887338D01*
X120825941Y-104894702D01*
X120949846Y-104877564D01*
X121068026Y-104836583D01*
X121175940Y-104773333D01*
X122632171Y-103715320D01*
X122725672Y-103632233D01*
X122801168Y-103532501D01*
X122855756Y-103419957D01*
X122887338Y-103298926D01*
X122894702Y-103174059D01*
X122877564Y-103050154D01*
X122836583Y-102931974D01*
X122773333Y-102824060D01*
X121715320Y-101367829D01*
X121632233Y-101274328D01*
X121532501Y-101198832D01*
X121419957Y-101144244D01*
X121298926Y-101112662D01*
X121174059Y-101105298D01*
X121050154Y-101122436D01*
X120931974Y-101163417D01*
X120824060Y-101226667D01*
X119367829Y-102284680D01*
X119274328Y-102367767D01*
X119198832Y-102467499D01*
X119144244Y-102580043D01*
X119112662Y-102701074D01*
X119105298Y-102825941D01*
X119122436Y-102949846D01*
X119127401Y-102964165D01*
X119096281Y-102957975D01*
X118793913Y-102957975D01*
X118497354Y-103016964D01*
X118218002Y-103132676D01*
X117966592Y-103300663D01*
X117752785Y-103514470D01*
X117584798Y-103765880D01*
X117469086Y-104045232D01*
X117410097Y-104341791D01*
X95334395Y-104341791D01*
X95175940Y-104226667D01*
X95068026Y-104163417D01*
X94949846Y-104122436D01*
X94825941Y-104105298D01*
X94701074Y-104112662D01*
X94580043Y-104144244D01*
X94467499Y-104198832D01*
X94451305Y-104211091D01*
X94421108Y-104059282D01*
X94305396Y-103779930D01*
X94137409Y-103528520D01*
X93923602Y-103314713D01*
X93672192Y-103146726D01*
X93392840Y-103031014D01*
X93096281Y-102972025D01*
X92793913Y-102972025D01*
X92497354Y-103031014D01*
X92218002Y-103146726D01*
X91966592Y-103314713D01*
X91752785Y-103528520D01*
X91584798Y-103779930D01*
X91469086Y-104059282D01*
X91410097Y-104355841D01*
X89134555Y-104355841D01*
X89112953Y-104247244D01*
X88952012Y-103858698D01*
X88718363Y-103509017D01*
X88420983Y-103211637D01*
X88071302Y-102977988D01*
X87682756Y-102817047D01*
X87270279Y-102735000D01*
X86849721Y-102735000D01*
X86437244Y-102817047D01*
X86048698Y-102977988D01*
X85699017Y-103211637D01*
X85401637Y-103509017D01*
X85167988Y-103858698D01*
X85007047Y-104247244D01*
X84925000Y-104659721D01*
X84118072Y-104659721D01*
X84118072Y-103370000D01*
X84105812Y-103245518D01*
X84069502Y-103125820D01*
X84010537Y-103015506D01*
X83931185Y-102918815D01*
X83834494Y-102839463D01*
X83724180Y-102780498D01*
X83604482Y-102744188D01*
X83480000Y-102731928D01*
X80480000Y-102731928D01*
X80355518Y-102744188D01*
X80235820Y-102780498D01*
X80125506Y-102839463D01*
X80124064Y-102840646D01*
X80120870Y-100712511D01*
X80243769Y-100589612D01*
X80268948Y-100568948D01*
X80351425Y-100468450D01*
X80412710Y-100353793D01*
X80450450Y-100229383D01*
X80460000Y-100132419D01*
X80460000Y-100132412D01*
X80463192Y-100100000D01*
X80460000Y-100067588D01*
X80460000Y-86184022D01*
X92871285Y-86184022D01*
X92973928Y-87651892D01*
X93239554Y-89099173D01*
X93664851Y-90507825D01*
X94244519Y-91860292D01*
X94971332Y-93139714D01*
X95836232Y-94330146D01*
X96828437Y-95416750D01*
X97935582Y-96385982D01*
X99143866Y-97225761D01*
X100438229Y-97925621D01*
X101802538Y-98476837D01*
X103219788Y-98872541D01*
X104672315Y-99107799D01*
X106142013Y-99179679D01*
X107610564Y-99087285D01*
X109059664Y-98831770D01*
X110471252Y-98416317D01*
X111827732Y-97846106D01*
X113112197Y-97128242D01*
X114308638Y-96271674D01*
X115402142Y-95287079D01*
X116379080Y-94186728D01*
X117227274Y-92984336D01*
X117936153Y-91694890D01*
X118496881Y-90334462D01*
X118902468Y-88920009D01*
X119147861Y-87469161D01*
X119230000Y-86000000D01*
X119224861Y-85631993D01*
X119101733Y-84165699D01*
X118815926Y-82722267D01*
X118371002Y-81319690D01*
X117772508Y-79975449D01*
X117027902Y-78706299D01*
X116777890Y-78372101D01*
X123229829Y-78372101D01*
X123232285Y-78497161D01*
X123259091Y-78619339D01*
X123815321Y-80331241D01*
X123865449Y-80445841D01*
X123936970Y-80548460D01*
X124027137Y-80635155D01*
X124132485Y-80702592D01*
X124248965Y-80748182D01*
X124372101Y-80770171D01*
X124390965Y-80769801D01*
X124308892Y-80967941D01*
X124249903Y-81264500D01*
X124249903Y-81566868D01*
X124308892Y-81863427D01*
X124424604Y-82142779D01*
X124592591Y-82394189D01*
X124806398Y-82607996D01*
X125057808Y-82775983D01*
X125337160Y-82891695D01*
X125633719Y-82950684D01*
X125936087Y-82950684D01*
X126232646Y-82891695D01*
X126511998Y-82775983D01*
X126763408Y-82607996D01*
X126977215Y-82394189D01*
X127145202Y-82142779D01*
X127260914Y-81863427D01*
X127319903Y-81566868D01*
X127319903Y-81264500D01*
X127260914Y-80967941D01*
X127145202Y-80688589D01*
X126977215Y-80437179D01*
X126763408Y-80223372D01*
X126536213Y-80071565D01*
X126548460Y-80063030D01*
X126635155Y-79972863D01*
X126702592Y-79867515D01*
X126748182Y-79751035D01*
X126770171Y-79627899D01*
X126767715Y-79502839D01*
X126740909Y-79380661D01*
X126184679Y-77668759D01*
X126134551Y-77554159D01*
X126063030Y-77451540D01*
X125972863Y-77364845D01*
X125867515Y-77297408D01*
X125751035Y-77251818D01*
X125627899Y-77229829D01*
X125502839Y-77232285D01*
X125380661Y-77259091D01*
X123668759Y-77815321D01*
X123554159Y-77865449D01*
X123451540Y-77936970D01*
X123364845Y-78027137D01*
X123297408Y-78132485D01*
X123251818Y-78248965D01*
X123229829Y-78372101D01*
X116777890Y-78372101D01*
X116146466Y-77528059D01*
X115139186Y-76455415D01*
X114018616Y-75501736D01*
X112798725Y-74678909D01*
X111494716Y-73997189D01*
X110122844Y-73465075D01*
X108700207Y-73089198D01*
X107244537Y-72874244D01*
X105773979Y-72822891D01*
X104306861Y-72935779D01*
X102861469Y-73211502D01*
X101455820Y-73646623D01*
X100107434Y-74235719D01*
X98833117Y-74971446D01*
X97648752Y-75844635D01*
X96569101Y-76844403D01*
X95607623Y-77958287D01*
X94776299Y-79172404D01*
X94085493Y-80471622D01*
X93543814Y-81839746D01*
X93158015Y-83259724D01*
X92932903Y-84713857D01*
X92871285Y-86184022D01*
X80460000Y-86184022D01*
X80460000Y-82627899D01*
X83229829Y-82627899D01*
X83251818Y-82751035D01*
X83297408Y-82867515D01*
X83364845Y-82972863D01*
X83451540Y-83063030D01*
X83554159Y-83134551D01*
X83668759Y-83184679D01*
X85380661Y-83740909D01*
X85502839Y-83767715D01*
X85627899Y-83770171D01*
X85751035Y-83748182D01*
X85867515Y-83702592D01*
X85972863Y-83635155D01*
X86063030Y-83548460D01*
X86134551Y-83445841D01*
X86184679Y-83331241D01*
X86740909Y-81619339D01*
X86767715Y-81497161D01*
X86770171Y-81372101D01*
X86748182Y-81248965D01*
X86702592Y-81132485D01*
X86635155Y-81027137D01*
X86548460Y-80936970D01*
X86536213Y-80928435D01*
X86763408Y-80776628D01*
X86977215Y-80562821D01*
X87145202Y-80311411D01*
X87260914Y-80032059D01*
X87319903Y-79735500D01*
X87319903Y-79433132D01*
X87260914Y-79136573D01*
X87145202Y-78857221D01*
X86977215Y-78605811D01*
X86763408Y-78392004D01*
X86511998Y-78224017D01*
X86232646Y-78108305D01*
X85936087Y-78049316D01*
X85633719Y-78049316D01*
X85337160Y-78108305D01*
X85057808Y-78224017D01*
X84806398Y-78392004D01*
X84592591Y-78605811D01*
X84424604Y-78857221D01*
X84308892Y-79136573D01*
X84249903Y-79433132D01*
X84249903Y-79735500D01*
X84308892Y-80032059D01*
X84390965Y-80230199D01*
X84372101Y-80229829D01*
X84248965Y-80251818D01*
X84132485Y-80297408D01*
X84027137Y-80364845D01*
X83936970Y-80451540D01*
X83865449Y-80554159D01*
X83815321Y-80668759D01*
X83259091Y-82380661D01*
X83232285Y-82502839D01*
X83229829Y-82627899D01*
X80460000Y-82627899D01*
X80460000Y-64979257D01*
X81004171Y-64051381D01*
X83320359Y-64051381D01*
X83400417Y-64765115D01*
X83617582Y-65449706D01*
X83963582Y-66079079D01*
X84425239Y-66629259D01*
X84984967Y-67079293D01*
X85621448Y-67412037D01*
X86310437Y-67614817D01*
X87025691Y-67679910D01*
X87739967Y-67604837D01*
X88426057Y-67392456D01*
X89057830Y-67050858D01*
X89611220Y-66593054D01*
X90065150Y-66036481D01*
X90402329Y-65402339D01*
X90493610Y-65100000D01*
X102921928Y-65100000D01*
X102921928Y-66900000D01*
X102934188Y-67024482D01*
X102970498Y-67144180D01*
X103029463Y-67254494D01*
X103108815Y-67351185D01*
X103205506Y-67430537D01*
X103315820Y-67489502D01*
X103435518Y-67525812D01*
X103560000Y-67538072D01*
X105360000Y-67538072D01*
X105484482Y-67525812D01*
X105604180Y-67489502D01*
X105714494Y-67430537D01*
X105811185Y-67351185D01*
X105890537Y-67254494D01*
X105949502Y-67144180D01*
X105955056Y-67125873D01*
X106021495Y-67192312D01*
X106272905Y-67360299D01*
X106552257Y-67476011D01*
X106848816Y-67535000D01*
X107151184Y-67535000D01*
X107447743Y-67476011D01*
X107727095Y-67360299D01*
X107978505Y-67192312D01*
X108192312Y-66978505D01*
X108360299Y-66727095D01*
X108476011Y-66447743D01*
X108535000Y-66151184D01*
X108535000Y-65848816D01*
X108476011Y-65552257D01*
X108360299Y-65272905D01*
X108192312Y-65021495D01*
X107978505Y-64807688D01*
X107727095Y-64639701D01*
X107447743Y-64523989D01*
X107151184Y-64465000D01*
X106848816Y-64465000D01*
X106552257Y-64523989D01*
X106272905Y-64639701D01*
X106021495Y-64807688D01*
X105955056Y-64874127D01*
X105949502Y-64855820D01*
X105890537Y-64745506D01*
X105811185Y-64648815D01*
X105714494Y-64569463D01*
X105604180Y-64510498D01*
X105484482Y-64474188D01*
X105360000Y-64461928D01*
X103560000Y-64461928D01*
X103435518Y-64474188D01*
X103315820Y-64510498D01*
X103205506Y-64569463D01*
X103108815Y-64648815D01*
X103029463Y-64745506D01*
X102970498Y-64855820D01*
X102934188Y-64975518D01*
X102921928Y-65100000D01*
X90493610Y-65100000D01*
X90609915Y-64714782D01*
X90674962Y-64051381D01*
X121420359Y-64051381D01*
X121500417Y-64765115D01*
X121717582Y-65449706D01*
X122063582Y-66079079D01*
X122525239Y-66629259D01*
X123084967Y-67079293D01*
X123721448Y-67412037D01*
X124410437Y-67614817D01*
X125125691Y-67679910D01*
X125839967Y-67604837D01*
X126526057Y-67392456D01*
X127157830Y-67050858D01*
X127711220Y-66593054D01*
X128165150Y-66036481D01*
X128502329Y-65402339D01*
X128709915Y-64714782D01*
X128780000Y-64000000D01*
X128778565Y-63897248D01*
X128688550Y-63184702D01*
X128461847Y-62503209D01*
X128107093Y-61878729D01*
X127637800Y-61335048D01*
X127071843Y-60892873D01*
X126430778Y-60569048D01*
X125739025Y-60375907D01*
X125022932Y-60320807D01*
X124309774Y-60405846D01*
X123626716Y-60627785D01*
X122999774Y-60978171D01*
X122452830Y-61443657D01*
X122006715Y-62006514D01*
X121678423Y-62645302D01*
X121480457Y-63335690D01*
X121420359Y-64051381D01*
X90674962Y-64051381D01*
X90680000Y-64000000D01*
X90678565Y-63897248D01*
X90588550Y-63184702D01*
X90361847Y-62503209D01*
X90007093Y-61878729D01*
X89537800Y-61335048D01*
X88971843Y-60892873D01*
X88330778Y-60569048D01*
X87639025Y-60375907D01*
X86922932Y-60320807D01*
X86209774Y-60405846D01*
X85526716Y-60627785D01*
X84899774Y-60978171D01*
X84352830Y-61443657D01*
X83906715Y-62006514D01*
X83578423Y-62645302D01*
X83380457Y-63335690D01*
X83320359Y-64051381D01*
X81004171Y-64051381D01*
X82709072Y-61144329D01*
X84613582Y-59228449D01*
X84643344Y-59210637D01*
X85457216Y-58890045D01*
X85626243Y-58853809D01*
X125188930Y-58672417D01*
X125983594Y-58739638D01*
X125983594Y-58739638D01*
G37*
X125983594Y-58739638D02*
X126458304Y-58860068D01*
X126579566Y-58971699D01*
X131401496Y-64471969D01*
X131690000Y-64952809D01*
X131690001Y-110977572D01*
X131690000Y-110977582D01*
X131690000Y-111067723D01*
X131670898Y-111262540D01*
X131642636Y-111356149D01*
X131619053Y-111384543D01*
X131486203Y-111492266D01*
X131334892Y-111571996D01*
X131170927Y-111620674D01*
X130994386Y-111637001D01*
X81009509Y-111338957D01*
X80834015Y-111320699D01*
X80671358Y-111270545D01*
X80521546Y-111189768D01*
X80390259Y-111081430D01*
X80282514Y-110949670D01*
X80202403Y-110799492D01*
X80152977Y-110636613D01*
X80135501Y-110461043D01*
X80130161Y-106903025D01*
X80235820Y-106959502D01*
X80355518Y-106995812D01*
X80480000Y-107008072D01*
X83480000Y-107008072D01*
X83604482Y-106995812D01*
X83724180Y-106959502D01*
X83834494Y-106900537D01*
X83931185Y-106821185D01*
X84010537Y-106724494D01*
X84069502Y-106614180D01*
X84105812Y-106494482D01*
X84118072Y-106370000D01*
X84118072Y-104659721D01*
X84925000Y-104659721D01*
X84925000Y-105080279D01*
X85007047Y-105492756D01*
X85167988Y-105881302D01*
X85401637Y-106230983D01*
X85699017Y-106528363D01*
X86048698Y-106762012D01*
X86437244Y-106922953D01*
X86849721Y-107005000D01*
X87270279Y-107005000D01*
X87682756Y-106922953D01*
X88071302Y-106762012D01*
X88420983Y-106528363D01*
X88718363Y-106230983D01*
X88952012Y-105881302D01*
X89112953Y-105492756D01*
X89195000Y-105080279D01*
X89195000Y-104659721D01*
X89134555Y-104355841D01*
X91410097Y-104355841D01*
X91410097Y-104658209D01*
X91469086Y-104954768D01*
X91584798Y-105234120D01*
X91752785Y-105485530D01*
X91966592Y-105699337D01*
X92218002Y-105867324D01*
X92497354Y-105983036D01*
X92793913Y-106042025D01*
X93096281Y-106042025D01*
X93127401Y-106035835D01*
X93122436Y-106050154D01*
X93105298Y-106174059D01*
X93112662Y-106298926D01*
X93144244Y-106419957D01*
X93198832Y-106532501D01*
X93274328Y-106632233D01*
X93367829Y-106715320D01*
X94824060Y-107773333D01*
X94931974Y-107836583D01*
X95050154Y-107877564D01*
X95174059Y-107894702D01*
X95298926Y-107887338D01*
X95419957Y-107855756D01*
X95532501Y-107801168D01*
X95632233Y-107725672D01*
X95715320Y-107632171D01*
X96773333Y-106175940D01*
X96836583Y-106068026D01*
X96877564Y-105949846D01*
X96894702Y-105825941D01*
X96887338Y-105701074D01*
X96855756Y-105580043D01*
X96801168Y-105467499D01*
X96725672Y-105367767D01*
X96632171Y-105284680D01*
X95334395Y-104341791D01*
X117410097Y-104341791D01*
X117410097Y-104644159D01*
X117469086Y-104940718D01*
X117584798Y-105220070D01*
X117752785Y-105471480D01*
X117966592Y-105685287D01*
X118218002Y-105853274D01*
X118497354Y-105968986D01*
X118793913Y-106027975D01*
X119096281Y-106027975D01*
X119392840Y-105968986D01*
X119672192Y-105853274D01*
X119923602Y-105685287D01*
X120137409Y-105471480D01*
X120305396Y-105220070D01*
X120421108Y-104940718D01*
X120451305Y-104788909D01*
X120467499Y-104801168D01*
X120580043Y-104855756D01*
X120701074Y-104887338D01*
X120825941Y-104894702D01*
X120949846Y-104877564D01*
X121068026Y-104836583D01*
X121175940Y-104773333D01*
X122632171Y-103715320D01*
X122725672Y-103632233D01*
X122801168Y-103532501D01*
X122855756Y-103419957D01*
X122887338Y-103298926D01*
X122894702Y-103174059D01*
X122877564Y-103050154D01*
X122836583Y-102931974D01*
X122773333Y-102824060D01*
X121715320Y-101367829D01*
X121632233Y-101274328D01*
X121532501Y-101198832D01*
X121419957Y-101144244D01*
X121298926Y-101112662D01*
X121174059Y-101105298D01*
X121050154Y-101122436D01*
X120931974Y-101163417D01*
X120824060Y-101226667D01*
X119367829Y-102284680D01*
X119274328Y-102367767D01*
X119198832Y-102467499D01*
X119144244Y-102580043D01*
X119112662Y-102701074D01*
X119105298Y-102825941D01*
X119122436Y-102949846D01*
X119127401Y-102964165D01*
X119096281Y-102957975D01*
X118793913Y-102957975D01*
X118497354Y-103016964D01*
X118218002Y-103132676D01*
X117966592Y-103300663D01*
X117752785Y-103514470D01*
X117584798Y-103765880D01*
X117469086Y-104045232D01*
X117410097Y-104341791D01*
X95334395Y-104341791D01*
X95175940Y-104226667D01*
X95068026Y-104163417D01*
X94949846Y-104122436D01*
X94825941Y-104105298D01*
X94701074Y-104112662D01*
X94580043Y-104144244D01*
X94467499Y-104198832D01*
X94451305Y-104211091D01*
X94421108Y-104059282D01*
X94305396Y-103779930D01*
X94137409Y-103528520D01*
X93923602Y-103314713D01*
X93672192Y-103146726D01*
X93392840Y-103031014D01*
X93096281Y-102972025D01*
X92793913Y-102972025D01*
X92497354Y-103031014D01*
X92218002Y-103146726D01*
X91966592Y-103314713D01*
X91752785Y-103528520D01*
X91584798Y-103779930D01*
X91469086Y-104059282D01*
X91410097Y-104355841D01*
X89134555Y-104355841D01*
X89112953Y-104247244D01*
X88952012Y-103858698D01*
X88718363Y-103509017D01*
X88420983Y-103211637D01*
X88071302Y-102977988D01*
X87682756Y-102817047D01*
X87270279Y-102735000D01*
X86849721Y-102735000D01*
X86437244Y-102817047D01*
X86048698Y-102977988D01*
X85699017Y-103211637D01*
X85401637Y-103509017D01*
X85167988Y-103858698D01*
X85007047Y-104247244D01*
X84925000Y-104659721D01*
X84118072Y-104659721D01*
X84118072Y-103370000D01*
X84105812Y-103245518D01*
X84069502Y-103125820D01*
X84010537Y-103015506D01*
X83931185Y-102918815D01*
X83834494Y-102839463D01*
X83724180Y-102780498D01*
X83604482Y-102744188D01*
X83480000Y-102731928D01*
X80480000Y-102731928D01*
X80355518Y-102744188D01*
X80235820Y-102780498D01*
X80125506Y-102839463D01*
X80124064Y-102840646D01*
X80120870Y-100712511D01*
X80243769Y-100589612D01*
X80268948Y-100568948D01*
X80351425Y-100468450D01*
X80412710Y-100353793D01*
X80450450Y-100229383D01*
X80460000Y-100132419D01*
X80460000Y-100132412D01*
X80463192Y-100100000D01*
X80460000Y-100067588D01*
X80460000Y-86184022D01*
X92871285Y-86184022D01*
X92973928Y-87651892D01*
X93239554Y-89099173D01*
X93664851Y-90507825D01*
X94244519Y-91860292D01*
X94971332Y-93139714D01*
X95836232Y-94330146D01*
X96828437Y-95416750D01*
X97935582Y-96385982D01*
X99143866Y-97225761D01*
X100438229Y-97925621D01*
X101802538Y-98476837D01*
X103219788Y-98872541D01*
X104672315Y-99107799D01*
X106142013Y-99179679D01*
X107610564Y-99087285D01*
X109059664Y-98831770D01*
X110471252Y-98416317D01*
X111827732Y-97846106D01*
X113112197Y-97128242D01*
X114308638Y-96271674D01*
X115402142Y-95287079D01*
X116379080Y-94186728D01*
X117227274Y-92984336D01*
X117936153Y-91694890D01*
X118496881Y-90334462D01*
X118902468Y-88920009D01*
X119147861Y-87469161D01*
X119230000Y-86000000D01*
X119224861Y-85631993D01*
X119101733Y-84165699D01*
X118815926Y-82722267D01*
X118371002Y-81319690D01*
X117772508Y-79975449D01*
X117027902Y-78706299D01*
X116777890Y-78372101D01*
X123229829Y-78372101D01*
X123232285Y-78497161D01*
X123259091Y-78619339D01*
X123815321Y-80331241D01*
X123865449Y-80445841D01*
X123936970Y-80548460D01*
X124027137Y-80635155D01*
X124132485Y-80702592D01*
X124248965Y-80748182D01*
X124372101Y-80770171D01*
X124390965Y-80769801D01*
X124308892Y-80967941D01*
X124249903Y-81264500D01*
X124249903Y-81566868D01*
X124308892Y-81863427D01*
X124424604Y-82142779D01*
X124592591Y-82394189D01*
X124806398Y-82607996D01*
X125057808Y-82775983D01*
X125337160Y-82891695D01*
X125633719Y-82950684D01*
X125936087Y-82950684D01*
X126232646Y-82891695D01*
X126511998Y-82775983D01*
X126763408Y-82607996D01*
X126977215Y-82394189D01*
X127145202Y-82142779D01*
X127260914Y-81863427D01*
X127319903Y-81566868D01*
X127319903Y-81264500D01*
X127260914Y-80967941D01*
X127145202Y-80688589D01*
X126977215Y-80437179D01*
X126763408Y-80223372D01*
X126536213Y-80071565D01*
X126548460Y-80063030D01*
X126635155Y-79972863D01*
X126702592Y-79867515D01*
X126748182Y-79751035D01*
X126770171Y-79627899D01*
X126767715Y-79502839D01*
X126740909Y-79380661D01*
X126184679Y-77668759D01*
X126134551Y-77554159D01*
X126063030Y-77451540D01*
X125972863Y-77364845D01*
X125867515Y-77297408D01*
X125751035Y-77251818D01*
X125627899Y-77229829D01*
X125502839Y-77232285D01*
X125380661Y-77259091D01*
X123668759Y-77815321D01*
X123554159Y-77865449D01*
X123451540Y-77936970D01*
X123364845Y-78027137D01*
X123297408Y-78132485D01*
X123251818Y-78248965D01*
X123229829Y-78372101D01*
X116777890Y-78372101D01*
X116146466Y-77528059D01*
X115139186Y-76455415D01*
X114018616Y-75501736D01*
X112798725Y-74678909D01*
X111494716Y-73997189D01*
X110122844Y-73465075D01*
X108700207Y-73089198D01*
X107244537Y-72874244D01*
X105773979Y-72822891D01*
X104306861Y-72935779D01*
X102861469Y-73211502D01*
X101455820Y-73646623D01*
X100107434Y-74235719D01*
X98833117Y-74971446D01*
X97648752Y-75844635D01*
X96569101Y-76844403D01*
X95607623Y-77958287D01*
X94776299Y-79172404D01*
X94085493Y-80471622D01*
X93543814Y-81839746D01*
X93158015Y-83259724D01*
X92932903Y-84713857D01*
X92871285Y-86184022D01*
X80460000Y-86184022D01*
X80460000Y-82627899D01*
X83229829Y-82627899D01*
X83251818Y-82751035D01*
X83297408Y-82867515D01*
X83364845Y-82972863D01*
X83451540Y-83063030D01*
X83554159Y-83134551D01*
X83668759Y-83184679D01*
X85380661Y-83740909D01*
X85502839Y-83767715D01*
X85627899Y-83770171D01*
X85751035Y-83748182D01*
X85867515Y-83702592D01*
X85972863Y-83635155D01*
X86063030Y-83548460D01*
X86134551Y-83445841D01*
X86184679Y-83331241D01*
X86740909Y-81619339D01*
X86767715Y-81497161D01*
X86770171Y-81372101D01*
X86748182Y-81248965D01*
X86702592Y-81132485D01*
X86635155Y-81027137D01*
X86548460Y-80936970D01*
X86536213Y-80928435D01*
X86763408Y-80776628D01*
X86977215Y-80562821D01*
X87145202Y-80311411D01*
X87260914Y-80032059D01*
X87319903Y-79735500D01*
X87319903Y-79433132D01*
X87260914Y-79136573D01*
X87145202Y-78857221D01*
X86977215Y-78605811D01*
X86763408Y-78392004D01*
X86511998Y-78224017D01*
X86232646Y-78108305D01*
X85936087Y-78049316D01*
X85633719Y-78049316D01*
X85337160Y-78108305D01*
X85057808Y-78224017D01*
X84806398Y-78392004D01*
X84592591Y-78605811D01*
X84424604Y-78857221D01*
X84308892Y-79136573D01*
X84249903Y-79433132D01*
X84249903Y-79735500D01*
X84308892Y-80032059D01*
X84390965Y-80230199D01*
X84372101Y-80229829D01*
X84248965Y-80251818D01*
X84132485Y-80297408D01*
X84027137Y-80364845D01*
X83936970Y-80451540D01*
X83865449Y-80554159D01*
X83815321Y-80668759D01*
X83259091Y-82380661D01*
X83232285Y-82502839D01*
X83229829Y-82627899D01*
X80460000Y-82627899D01*
X80460000Y-64979257D01*
X81004171Y-64051381D01*
X83320359Y-64051381D01*
X83400417Y-64765115D01*
X83617582Y-65449706D01*
X83963582Y-66079079D01*
X84425239Y-66629259D01*
X84984967Y-67079293D01*
X85621448Y-67412037D01*
X86310437Y-67614817D01*
X87025691Y-67679910D01*
X87739967Y-67604837D01*
X88426057Y-67392456D01*
X89057830Y-67050858D01*
X89611220Y-66593054D01*
X90065150Y-66036481D01*
X90402329Y-65402339D01*
X90493610Y-65100000D01*
X102921928Y-65100000D01*
X102921928Y-66900000D01*
X102934188Y-67024482D01*
X102970498Y-67144180D01*
X103029463Y-67254494D01*
X103108815Y-67351185D01*
X103205506Y-67430537D01*
X103315820Y-67489502D01*
X103435518Y-67525812D01*
X103560000Y-67538072D01*
X105360000Y-67538072D01*
X105484482Y-67525812D01*
X105604180Y-67489502D01*
X105714494Y-67430537D01*
X105811185Y-67351185D01*
X105890537Y-67254494D01*
X105949502Y-67144180D01*
X105955056Y-67125873D01*
X106021495Y-67192312D01*
X106272905Y-67360299D01*
X106552257Y-67476011D01*
X106848816Y-67535000D01*
X107151184Y-67535000D01*
X107447743Y-67476011D01*
X107727095Y-67360299D01*
X107978505Y-67192312D01*
X108192312Y-66978505D01*
X108360299Y-66727095D01*
X108476011Y-66447743D01*
X108535000Y-66151184D01*
X108535000Y-65848816D01*
X108476011Y-65552257D01*
X108360299Y-65272905D01*
X108192312Y-65021495D01*
X107978505Y-64807688D01*
X107727095Y-64639701D01*
X107447743Y-64523989D01*
X107151184Y-64465000D01*
X106848816Y-64465000D01*
X106552257Y-64523989D01*
X106272905Y-64639701D01*
X106021495Y-64807688D01*
X105955056Y-64874127D01*
X105949502Y-64855820D01*
X105890537Y-64745506D01*
X105811185Y-64648815D01*
X105714494Y-64569463D01*
X105604180Y-64510498D01*
X105484482Y-64474188D01*
X105360000Y-64461928D01*
X103560000Y-64461928D01*
X103435518Y-64474188D01*
X103315820Y-64510498D01*
X103205506Y-64569463D01*
X103108815Y-64648815D01*
X103029463Y-64745506D01*
X102970498Y-64855820D01*
X102934188Y-64975518D01*
X102921928Y-65100000D01*
X90493610Y-65100000D01*
X90609915Y-64714782D01*
X90674962Y-64051381D01*
X121420359Y-64051381D01*
X121500417Y-64765115D01*
X121717582Y-65449706D01*
X122063582Y-66079079D01*
X122525239Y-66629259D01*
X123084967Y-67079293D01*
X123721448Y-67412037D01*
X124410437Y-67614817D01*
X125125691Y-67679910D01*
X125839967Y-67604837D01*
X126526057Y-67392456D01*
X127157830Y-67050858D01*
X127711220Y-66593054D01*
X128165150Y-66036481D01*
X128502329Y-65402339D01*
X128709915Y-64714782D01*
X128780000Y-64000000D01*
X128778565Y-63897248D01*
X128688550Y-63184702D01*
X128461847Y-62503209D01*
X128107093Y-61878729D01*
X127637800Y-61335048D01*
X127071843Y-60892873D01*
X126430778Y-60569048D01*
X125739025Y-60375907D01*
X125022932Y-60320807D01*
X124309774Y-60405846D01*
X123626716Y-60627785D01*
X122999774Y-60978171D01*
X122452830Y-61443657D01*
X122006715Y-62006514D01*
X121678423Y-62645302D01*
X121480457Y-63335690D01*
X121420359Y-64051381D01*
X90674962Y-64051381D01*
X90680000Y-64000000D01*
X90678565Y-63897248D01*
X90588550Y-63184702D01*
X90361847Y-62503209D01*
X90007093Y-61878729D01*
X89537800Y-61335048D01*
X88971843Y-60892873D01*
X88330778Y-60569048D01*
X87639025Y-60375907D01*
X86922932Y-60320807D01*
X86209774Y-60405846D01*
X85526716Y-60627785D01*
X84899774Y-60978171D01*
X84352830Y-61443657D01*
X83906715Y-62006514D01*
X83578423Y-62645302D01*
X83380457Y-63335690D01*
X83320359Y-64051381D01*
X81004171Y-64051381D01*
X82709072Y-61144329D01*
X84613582Y-59228449D01*
X84643344Y-59210637D01*
X85457216Y-58890045D01*
X85626243Y-58853809D01*
X125188930Y-58672417D01*
X125983594Y-58739638D01*
M02*
