G04 #@! TF.GenerationSoftware,KiCad,Pcbnew,(5.1.0)-1*
G04 #@! TF.CreationDate,2019-11-21T20:20:07-05:00*
G04 #@! TF.ProjectId,gopro_lights,676f7072-6f5f-46c6-9967-6874732e6b69,1*
G04 #@! TF.SameCoordinates,Original*
G04 #@! TF.FileFunction,Soldermask,Bot*
G04 #@! TF.FilePolarity,Negative*
%FSLAX46Y46*%
G04 Gerber Fmt 4.6, Leading zero omitted, Abs format (unit mm)*
G04 Created by KiCad (PCBNEW (5.1.0)-1) date 2019-11-21 20:20:07*
%MOMM*%
%LPD*%
G04 APERTURE LIST*
%ADD10C,0.100000*%
G04 APERTURE END LIST*
D10*
G36*
X96328359Y-105789609D02*
G01*
X95210391Y-107328359D01*
X93671641Y-106210391D01*
X94789609Y-104671641D01*
X96328359Y-105789609D01*
X96328359Y-105789609D01*
G37*
G36*
X87362585Y-103348802D02*
G01*
X87512410Y-103378604D01*
X87794674Y-103495521D01*
X88048705Y-103665259D01*
X88264741Y-103881295D01*
X88434479Y-104135326D01*
X88551396Y-104417590D01*
X88551396Y-104417591D01*
X88611000Y-104717239D01*
X88611000Y-105022761D01*
X88593000Y-105113252D01*
X88551396Y-105322410D01*
X88434479Y-105604674D01*
X88264741Y-105858705D01*
X88048705Y-106074741D01*
X87794674Y-106244479D01*
X87512410Y-106361396D01*
X87362585Y-106391198D01*
X87212761Y-106421000D01*
X86907239Y-106421000D01*
X86757415Y-106391198D01*
X86607590Y-106361396D01*
X86325326Y-106244479D01*
X86071295Y-106074741D01*
X85855259Y-105858705D01*
X85685521Y-105604674D01*
X85568604Y-105322410D01*
X85527000Y-105113252D01*
X85509000Y-105022761D01*
X85509000Y-104717239D01*
X85568604Y-104417591D01*
X85568604Y-104417590D01*
X85685521Y-104135326D01*
X85855259Y-103881295D01*
X86071295Y-103665259D01*
X86325326Y-103495521D01*
X86607590Y-103378604D01*
X86757415Y-103348802D01*
X86907239Y-103319000D01*
X87212761Y-103319000D01*
X87362585Y-103348802D01*
X87362585Y-103348802D01*
G37*
G36*
X83531000Y-106421000D02*
G01*
X80429000Y-106421000D01*
X80429000Y-103319000D01*
X83531000Y-103319000D01*
X83531000Y-106421000D01*
X83531000Y-106421000D01*
G37*
G36*
X93222492Y-103592571D02*
G01*
X93395563Y-103664259D01*
X93397061Y-103665260D01*
X93551324Y-103768335D01*
X93683787Y-103900798D01*
X93683788Y-103900800D01*
X93787863Y-104056559D01*
X93859551Y-104229630D01*
X93896097Y-104413358D01*
X93896097Y-104600692D01*
X93859551Y-104784420D01*
X93787863Y-104957491D01*
X93787862Y-104957492D01*
X93683787Y-105113252D01*
X93551324Y-105245715D01*
X93472915Y-105298106D01*
X93395563Y-105349791D01*
X93222492Y-105421479D01*
X93038764Y-105458025D01*
X92851430Y-105458025D01*
X92667702Y-105421479D01*
X92494631Y-105349791D01*
X92417279Y-105298106D01*
X92338870Y-105245715D01*
X92206407Y-105113252D01*
X92102332Y-104957492D01*
X92102331Y-104957491D01*
X92030643Y-104784420D01*
X91994097Y-104600692D01*
X91994097Y-104413358D01*
X92030643Y-104229630D01*
X92102331Y-104056559D01*
X92206406Y-103900800D01*
X92206407Y-103900798D01*
X92338870Y-103768335D01*
X92493133Y-103665260D01*
X92494631Y-103664259D01*
X92667702Y-103592571D01*
X92851430Y-103556025D01*
X93038764Y-103556025D01*
X93222492Y-103592571D01*
X93222492Y-103592571D01*
G37*
G36*
X119222492Y-103578521D02*
G01*
X119395563Y-103650209D01*
X119418087Y-103665259D01*
X119551324Y-103754285D01*
X119683787Y-103886748D01*
X119683788Y-103886750D01*
X119787863Y-104042509D01*
X119859551Y-104215580D01*
X119896097Y-104399308D01*
X119896097Y-104586642D01*
X119859551Y-104770370D01*
X119787863Y-104943441D01*
X119787862Y-104943442D01*
X119683787Y-105099202D01*
X119551324Y-105231665D01*
X119530295Y-105245716D01*
X119395563Y-105335741D01*
X119222492Y-105407429D01*
X119038764Y-105443975D01*
X118851430Y-105443975D01*
X118667702Y-105407429D01*
X118494631Y-105335741D01*
X118359899Y-105245716D01*
X118338870Y-105231665D01*
X118206407Y-105099202D01*
X118102332Y-104943442D01*
X118102331Y-104943441D01*
X118030643Y-104770370D01*
X117994097Y-104586642D01*
X117994097Y-104399308D01*
X118030643Y-104215580D01*
X118102331Y-104042509D01*
X118206406Y-103886750D01*
X118206407Y-103886748D01*
X118338870Y-103754285D01*
X118472107Y-103665259D01*
X118494631Y-103650209D01*
X118667702Y-103578521D01*
X118851430Y-103541975D01*
X119038764Y-103541975D01*
X119222492Y-103578521D01*
X119222492Y-103578521D01*
G37*
G36*
X122328359Y-103210391D02*
G01*
X120789609Y-104328359D01*
X119671641Y-102789609D01*
X121210391Y-101671641D01*
X122328359Y-103210391D01*
X122328359Y-103210391D01*
G37*
G36*
X86198330Y-81389420D02*
G01*
X85610580Y-83198330D01*
X83801670Y-82610580D01*
X84389420Y-80801670D01*
X86198330Y-81389420D01*
X86198330Y-81389420D01*
G37*
G36*
X126062298Y-80501230D02*
G01*
X126235369Y-80572918D01*
X126235370Y-80572919D01*
X126391130Y-80676994D01*
X126523593Y-80809457D01*
X126523594Y-80809459D01*
X126627669Y-80965218D01*
X126699357Y-81138289D01*
X126735903Y-81322017D01*
X126735903Y-81509351D01*
X126699357Y-81693079D01*
X126627669Y-81866150D01*
X126627668Y-81866151D01*
X126523593Y-82021911D01*
X126391130Y-82154374D01*
X126312721Y-82206765D01*
X126235369Y-82258450D01*
X126062298Y-82330138D01*
X125878570Y-82366684D01*
X125691236Y-82366684D01*
X125507508Y-82330138D01*
X125334437Y-82258450D01*
X125257085Y-82206765D01*
X125178676Y-82154374D01*
X125046213Y-82021911D01*
X124942138Y-81866151D01*
X124942137Y-81866150D01*
X124870449Y-81693079D01*
X124833903Y-81509351D01*
X124833903Y-81322017D01*
X124870449Y-81138289D01*
X124942137Y-80965218D01*
X125046212Y-80809459D01*
X125046213Y-80809457D01*
X125178676Y-80676994D01*
X125334436Y-80572919D01*
X125334437Y-80572918D01*
X125507508Y-80501230D01*
X125691236Y-80464684D01*
X125878570Y-80464684D01*
X126062298Y-80501230D01*
X126062298Y-80501230D01*
G37*
G36*
X86062298Y-78669862D02*
G01*
X86235369Y-78741550D01*
X86235370Y-78741551D01*
X86391130Y-78845626D01*
X86523593Y-78978089D01*
X86523594Y-78978091D01*
X86627669Y-79133850D01*
X86699357Y-79306921D01*
X86735903Y-79490649D01*
X86735903Y-79677983D01*
X86699357Y-79861711D01*
X86627669Y-80034782D01*
X86627668Y-80034783D01*
X86523593Y-80190543D01*
X86391130Y-80323006D01*
X86312721Y-80375397D01*
X86235369Y-80427082D01*
X86062298Y-80498770D01*
X85878570Y-80535316D01*
X85691236Y-80535316D01*
X85507508Y-80498770D01*
X85334437Y-80427082D01*
X85257085Y-80375397D01*
X85178676Y-80323006D01*
X85046213Y-80190543D01*
X84942138Y-80034783D01*
X84942137Y-80034782D01*
X84870449Y-79861711D01*
X84833903Y-79677983D01*
X84833903Y-79490649D01*
X84870449Y-79306921D01*
X84942137Y-79133850D01*
X85046212Y-78978091D01*
X85046213Y-78978089D01*
X85178676Y-78845626D01*
X85334436Y-78741551D01*
X85334437Y-78741550D01*
X85507508Y-78669862D01*
X85691236Y-78633316D01*
X85878570Y-78633316D01*
X86062298Y-78669862D01*
X86062298Y-78669862D01*
G37*
G36*
X126198330Y-79610580D02*
G01*
X124389420Y-80198330D01*
X123801670Y-78389420D01*
X125610580Y-77801670D01*
X126198330Y-79610580D01*
X126198330Y-79610580D01*
G37*
G36*
X107277395Y-65085546D02*
G01*
X107450466Y-65157234D01*
X107450467Y-65157235D01*
X107606227Y-65261310D01*
X107738690Y-65393773D01*
X107738691Y-65393775D01*
X107842766Y-65549534D01*
X107914454Y-65722605D01*
X107951000Y-65906333D01*
X107951000Y-66093667D01*
X107914454Y-66277395D01*
X107842766Y-66450466D01*
X107842765Y-66450467D01*
X107738690Y-66606227D01*
X107606227Y-66738690D01*
X107527818Y-66791081D01*
X107450466Y-66842766D01*
X107277395Y-66914454D01*
X107093667Y-66951000D01*
X106906333Y-66951000D01*
X106722605Y-66914454D01*
X106549534Y-66842766D01*
X106472182Y-66791081D01*
X106393773Y-66738690D01*
X106261310Y-66606227D01*
X106157235Y-66450467D01*
X106157234Y-66450466D01*
X106085546Y-66277395D01*
X106049000Y-66093667D01*
X106049000Y-65906333D01*
X106085546Y-65722605D01*
X106157234Y-65549534D01*
X106261309Y-65393775D01*
X106261310Y-65393773D01*
X106393773Y-65261310D01*
X106549533Y-65157235D01*
X106549534Y-65157234D01*
X106722605Y-65085546D01*
X106906333Y-65049000D01*
X107093667Y-65049000D01*
X107277395Y-65085546D01*
X107277395Y-65085546D01*
G37*
G36*
X105411000Y-66951000D02*
G01*
X103509000Y-66951000D01*
X103509000Y-65049000D01*
X105411000Y-65049000D01*
X105411000Y-66951000D01*
X105411000Y-66951000D01*
G37*
M02*
