G04 #@! TF.GenerationSoftware,KiCad,Pcbnew,(5.1.0)-1*
G04 #@! TF.CreationDate,2019-11-21T20:20:06-05:00*
G04 #@! TF.ProjectId,gopro_lights,676f7072-6f5f-46c6-9967-6874732e6b69,1*
G04 #@! TF.SameCoordinates,Original*
G04 #@! TF.FileFunction,Paste,Top*
G04 #@! TF.FilePolarity,Positive*
%FSLAX46Y46*%
G04 Gerber Fmt 4.6, Leading zero omitted, Abs format (unit mm)*
G04 Created by KiCad (PCBNEW (5.1.0)-1) date 2019-11-21 20:20:06*
%MOMM*%
%LPD*%
G04 APERTURE LIST*
%ADD10C,0.100000*%
%ADD11C,0.975000*%
G04 APERTURE END LIST*
D10*
G36*
X84330142Y-95301174D02*
G01*
X84353803Y-95304684D01*
X84377007Y-95310496D01*
X84399529Y-95318554D01*
X84421153Y-95328782D01*
X84441670Y-95341079D01*
X84460883Y-95355329D01*
X84478607Y-95371393D01*
X84494671Y-95389117D01*
X84508921Y-95408330D01*
X84521218Y-95428847D01*
X84531446Y-95450471D01*
X84539504Y-95472993D01*
X84545316Y-95496197D01*
X84548826Y-95519858D01*
X84550000Y-95543750D01*
X84550000Y-96456250D01*
X84548826Y-96480142D01*
X84545316Y-96503803D01*
X84539504Y-96527007D01*
X84531446Y-96549529D01*
X84521218Y-96571153D01*
X84508921Y-96591670D01*
X84494671Y-96610883D01*
X84478607Y-96628607D01*
X84460883Y-96644671D01*
X84441670Y-96658921D01*
X84421153Y-96671218D01*
X84399529Y-96681446D01*
X84377007Y-96689504D01*
X84353803Y-96695316D01*
X84330142Y-96698826D01*
X84306250Y-96700000D01*
X83818750Y-96700000D01*
X83794858Y-96698826D01*
X83771197Y-96695316D01*
X83747993Y-96689504D01*
X83725471Y-96681446D01*
X83703847Y-96671218D01*
X83683330Y-96658921D01*
X83664117Y-96644671D01*
X83646393Y-96628607D01*
X83630329Y-96610883D01*
X83616079Y-96591670D01*
X83603782Y-96571153D01*
X83593554Y-96549529D01*
X83585496Y-96527007D01*
X83579684Y-96503803D01*
X83576174Y-96480142D01*
X83575000Y-96456250D01*
X83575000Y-95543750D01*
X83576174Y-95519858D01*
X83579684Y-95496197D01*
X83585496Y-95472993D01*
X83593554Y-95450471D01*
X83603782Y-95428847D01*
X83616079Y-95408330D01*
X83630329Y-95389117D01*
X83646393Y-95371393D01*
X83664117Y-95355329D01*
X83683330Y-95341079D01*
X83703847Y-95328782D01*
X83725471Y-95318554D01*
X83747993Y-95310496D01*
X83771197Y-95304684D01*
X83794858Y-95301174D01*
X83818750Y-95300000D01*
X84306250Y-95300000D01*
X84330142Y-95301174D01*
X84330142Y-95301174D01*
G37*
D11*
X84062500Y-96000000D03*
D10*
G36*
X86205142Y-95301174D02*
G01*
X86228803Y-95304684D01*
X86252007Y-95310496D01*
X86274529Y-95318554D01*
X86296153Y-95328782D01*
X86316670Y-95341079D01*
X86335883Y-95355329D01*
X86353607Y-95371393D01*
X86369671Y-95389117D01*
X86383921Y-95408330D01*
X86396218Y-95428847D01*
X86406446Y-95450471D01*
X86414504Y-95472993D01*
X86420316Y-95496197D01*
X86423826Y-95519858D01*
X86425000Y-95543750D01*
X86425000Y-96456250D01*
X86423826Y-96480142D01*
X86420316Y-96503803D01*
X86414504Y-96527007D01*
X86406446Y-96549529D01*
X86396218Y-96571153D01*
X86383921Y-96591670D01*
X86369671Y-96610883D01*
X86353607Y-96628607D01*
X86335883Y-96644671D01*
X86316670Y-96658921D01*
X86296153Y-96671218D01*
X86274529Y-96681446D01*
X86252007Y-96689504D01*
X86228803Y-96695316D01*
X86205142Y-96698826D01*
X86181250Y-96700000D01*
X85693750Y-96700000D01*
X85669858Y-96698826D01*
X85646197Y-96695316D01*
X85622993Y-96689504D01*
X85600471Y-96681446D01*
X85578847Y-96671218D01*
X85558330Y-96658921D01*
X85539117Y-96644671D01*
X85521393Y-96628607D01*
X85505329Y-96610883D01*
X85491079Y-96591670D01*
X85478782Y-96571153D01*
X85468554Y-96549529D01*
X85460496Y-96527007D01*
X85454684Y-96503803D01*
X85451174Y-96480142D01*
X85450000Y-96456250D01*
X85450000Y-95543750D01*
X85451174Y-95519858D01*
X85454684Y-95496197D01*
X85460496Y-95472993D01*
X85468554Y-95450471D01*
X85478782Y-95428847D01*
X85491079Y-95408330D01*
X85505329Y-95389117D01*
X85521393Y-95371393D01*
X85539117Y-95355329D01*
X85558330Y-95341079D01*
X85578847Y-95328782D01*
X85600471Y-95318554D01*
X85622993Y-95310496D01*
X85646197Y-95304684D01*
X85669858Y-95301174D01*
X85693750Y-95300000D01*
X86181250Y-95300000D01*
X86205142Y-95301174D01*
X86205142Y-95301174D01*
G37*
D11*
X85937500Y-96000000D03*
D10*
G36*
X129480142Y-105513674D02*
G01*
X129503803Y-105517184D01*
X129527007Y-105522996D01*
X129549529Y-105531054D01*
X129571153Y-105541282D01*
X129591670Y-105553579D01*
X129610883Y-105567829D01*
X129628607Y-105583893D01*
X129644671Y-105601617D01*
X129658921Y-105620830D01*
X129671218Y-105641347D01*
X129681446Y-105662971D01*
X129689504Y-105685493D01*
X129695316Y-105708697D01*
X129698826Y-105732358D01*
X129700000Y-105756250D01*
X129700000Y-106243750D01*
X129698826Y-106267642D01*
X129695316Y-106291303D01*
X129689504Y-106314507D01*
X129681446Y-106337029D01*
X129671218Y-106358653D01*
X129658921Y-106379170D01*
X129644671Y-106398383D01*
X129628607Y-106416107D01*
X129610883Y-106432171D01*
X129591670Y-106446421D01*
X129571153Y-106458718D01*
X129549529Y-106468946D01*
X129527007Y-106477004D01*
X129503803Y-106482816D01*
X129480142Y-106486326D01*
X129456250Y-106487500D01*
X128543750Y-106487500D01*
X128519858Y-106486326D01*
X128496197Y-106482816D01*
X128472993Y-106477004D01*
X128450471Y-106468946D01*
X128428847Y-106458718D01*
X128408330Y-106446421D01*
X128389117Y-106432171D01*
X128371393Y-106416107D01*
X128355329Y-106398383D01*
X128341079Y-106379170D01*
X128328782Y-106358653D01*
X128318554Y-106337029D01*
X128310496Y-106314507D01*
X128304684Y-106291303D01*
X128301174Y-106267642D01*
X128300000Y-106243750D01*
X128300000Y-105756250D01*
X128301174Y-105732358D01*
X128304684Y-105708697D01*
X128310496Y-105685493D01*
X128318554Y-105662971D01*
X128328782Y-105641347D01*
X128341079Y-105620830D01*
X128355329Y-105601617D01*
X128371393Y-105583893D01*
X128389117Y-105567829D01*
X128408330Y-105553579D01*
X128428847Y-105541282D01*
X128450471Y-105531054D01*
X128472993Y-105522996D01*
X128496197Y-105517184D01*
X128519858Y-105513674D01*
X128543750Y-105512500D01*
X129456250Y-105512500D01*
X129480142Y-105513674D01*
X129480142Y-105513674D01*
G37*
D11*
X129000000Y-106000000D03*
D10*
G36*
X129480142Y-107388674D02*
G01*
X129503803Y-107392184D01*
X129527007Y-107397996D01*
X129549529Y-107406054D01*
X129571153Y-107416282D01*
X129591670Y-107428579D01*
X129610883Y-107442829D01*
X129628607Y-107458893D01*
X129644671Y-107476617D01*
X129658921Y-107495830D01*
X129671218Y-107516347D01*
X129681446Y-107537971D01*
X129689504Y-107560493D01*
X129695316Y-107583697D01*
X129698826Y-107607358D01*
X129700000Y-107631250D01*
X129700000Y-108118750D01*
X129698826Y-108142642D01*
X129695316Y-108166303D01*
X129689504Y-108189507D01*
X129681446Y-108212029D01*
X129671218Y-108233653D01*
X129658921Y-108254170D01*
X129644671Y-108273383D01*
X129628607Y-108291107D01*
X129610883Y-108307171D01*
X129591670Y-108321421D01*
X129571153Y-108333718D01*
X129549529Y-108343946D01*
X129527007Y-108352004D01*
X129503803Y-108357816D01*
X129480142Y-108361326D01*
X129456250Y-108362500D01*
X128543750Y-108362500D01*
X128519858Y-108361326D01*
X128496197Y-108357816D01*
X128472993Y-108352004D01*
X128450471Y-108343946D01*
X128428847Y-108333718D01*
X128408330Y-108321421D01*
X128389117Y-108307171D01*
X128371393Y-108291107D01*
X128355329Y-108273383D01*
X128341079Y-108254170D01*
X128328782Y-108233653D01*
X128318554Y-108212029D01*
X128310496Y-108189507D01*
X128304684Y-108166303D01*
X128301174Y-108142642D01*
X128300000Y-108118750D01*
X128300000Y-107631250D01*
X128301174Y-107607358D01*
X128304684Y-107583697D01*
X128310496Y-107560493D01*
X128318554Y-107537971D01*
X128328782Y-107516347D01*
X128341079Y-107495830D01*
X128355329Y-107476617D01*
X128371393Y-107458893D01*
X128389117Y-107442829D01*
X128408330Y-107428579D01*
X128428847Y-107416282D01*
X128450471Y-107406054D01*
X128472993Y-107397996D01*
X128496197Y-107392184D01*
X128519858Y-107388674D01*
X128543750Y-107387500D01*
X129456250Y-107387500D01*
X129480142Y-107388674D01*
X129480142Y-107388674D01*
G37*
D11*
X129000000Y-107875000D03*
M02*
